<svg width="593" height="203" viewBox="0 0 593 203" fill="none" xmlns="http://www.w3.org/2000/svg">
<rect x="0.5" y="0.5" width="592" height="202" rx="4.5" stroke="#9747FF" stroke-dasharray="10 5"/>
<path d="M31.961 43.96C35.271 43.96 37.961 46.65 37.961 49.96C37.961 54.37 33.941 58.01 32.001 59.51C30.041 58.01 25.981 54.38 25.961 49.98C25.961 46.87 28.461 44.17 31.551 43.97C31.691 43.97 31.821 43.96 31.961 43.96ZM31.961 41.96C31.781 41.96 31.601 41.96 31.421 41.98C27.271 42.25 23.941 45.83 23.961 49.99C23.981 55.83 29.591 60.2799 31.431 61.57C31.601 61.69 31.801 61.75 32.001 61.75C32.201 61.75 32.401 61.6899 32.581 61.5599C34.401 60.26 39.961 55.8 39.961 49.95C39.961 45.53 36.381 41.95 31.961 41.95V41.96Z" fill="#362D2D"/>
<path d="M31.961 43.96C35.271 43.96 37.961 46.65 37.961 49.96C37.961 54.37 33.941 58.01 32.001 59.51C30.041 58.01 25.981 54.38 25.961 49.98C25.961 46.87 28.461 44.17 31.551 43.97C31.691 43.97 31.821 43.96 31.961 43.96ZM31.961 41.96C31.781 41.96 31.601 41.96 31.421 41.98C27.271 42.25 23.941 45.83 23.961 49.99C23.981 55.83 29.591 60.2799 31.431 61.57C31.601 61.69 31.801 61.75 32.001 61.75C32.201 61.75 32.401 61.6899 32.581 61.5599C34.401 60.26 39.961 55.8 39.961 49.95C39.961 45.53 36.381 41.95 31.961 41.95V41.96Z" fill="black" fill-opacity="0.2"/>
<path d="M31.9609 52.96C33.6178 52.96 34.9609 51.6168 34.9609 49.96C34.9609 48.3031 33.6178 46.96 31.9609 46.96C30.3041 46.96 28.9609 48.3031 28.9609 49.96C28.9609 51.6168 30.3041 52.96 31.9609 52.96Z" fill="#362D2D"/>
<path d="M31.9609 52.96C33.6178 52.96 34.9609 51.6168 34.9609 49.96C34.9609 48.3031 33.6178 46.96 31.9609 46.96C30.3041 46.96 28.9609 48.3031 28.9609 49.96C28.9609 51.6168 30.3041 52.96 31.9609 52.96Z" fill="black" fill-opacity="0.2"/>
<path d="M126.948 41.2801C131.361 41.2801 134.948 44.8668 134.948 49.2801C134.948 55.1601 129.588 60.0134 127.001 62.0134C124.388 60.0134 118.975 55.1734 118.948 49.3068C118.948 45.1601 122.281 41.5601 126.401 41.2934C126.588 41.2934 126.761 41.2801 126.948 41.2801ZM126.948 38.6134C126.708 38.6134 126.468 38.6134 126.228 38.6401C120.695 39.0001 116.255 43.7734 116.281 49.3201C116.308 57.1068 123.788 63.0401 126.241 64.7601C126.468 64.9201 126.735 65.0001 127.001 65.0001C127.268 65.0001 127.535 64.9201 127.775 64.7468C130.201 63.0134 137.615 57.0668 137.615 49.2668C137.615 43.3734 132.841 38.6001 126.948 38.6001V38.6134Z" fill="#362D2D"/>
<path d="M126.948 41.2801C131.361 41.2801 134.948 44.8668 134.948 49.2801C134.948 55.1601 129.588 60.0134 127.001 62.0134C124.388 60.0134 118.975 55.1734 118.948 49.3068C118.948 45.1601 122.281 41.5601 126.401 41.2934C126.588 41.2934 126.761 41.2801 126.948 41.2801ZM126.948 38.6134C126.708 38.6134 126.468 38.6134 126.228 38.6401C120.695 39.0001 116.255 43.7734 116.281 49.3201C116.308 57.1068 123.788 63.0401 126.241 64.7601C126.468 64.9201 126.735 65.0001 127.001 65.0001C127.268 65.0001 127.535 64.9201 127.775 64.7468C130.201 63.0134 137.615 57.0668 137.615 49.2668C137.615 43.3734 132.841 38.6001 126.948 38.6001V38.6134Z" fill="black" fill-opacity="0.2"/>
<path d="M126.945 53.28C129.154 53.28 130.945 51.4892 130.945 49.28C130.945 47.0709 129.154 45.28 126.945 45.28C124.736 45.28 122.945 47.0709 122.945 49.28C122.945 51.4892 124.736 53.28 126.945 53.28Z" fill="#362D2D"/>
<path d="M126.945 53.28C129.154 53.28 130.945 51.4892 130.945 49.28C130.945 47.0709 129.154 45.28 126.945 45.28C124.736 45.28 122.945 47.0709 122.945 49.28C122.945 51.4892 124.736 53.28 126.945 53.28Z" fill="black" fill-opacity="0.2"/>
<path d="M221.935 38.6C227.452 38.6 231.935 43.0833 231.935 48.6C231.935 55.95 225.235 62.0167 222.002 64.5167C218.735 62.0167 211.968 55.9667 211.935 48.6333C211.935 43.45 216.102 38.95 221.252 38.6167C221.485 38.6167 221.702 38.6 221.935 38.6ZM221.935 35.2667C221.635 35.2667 221.335 35.2667 221.035 35.3C214.118 35.75 208.568 41.7167 208.602 48.65C208.635 58.3833 217.985 65.8 221.052 67.95C221.335 68.15 221.668 68.25 222.002 68.25C222.335 68.25 222.668 68.15 222.968 67.9333C226.002 65.7667 235.268 58.3333 235.268 48.5833C235.268 41.2167 229.302 35.25 221.935 35.25V35.2667Z" fill="#362D2D"/>
<path d="M221.935 38.6C227.452 38.6 231.935 43.0833 231.935 48.6C231.935 55.95 225.235 62.0167 222.002 64.5167C218.735 62.0167 211.968 55.9667 211.935 48.6333C211.935 43.45 216.102 38.95 221.252 38.6167C221.485 38.6167 221.702 38.6 221.935 38.6ZM221.935 35.2667C221.635 35.2667 221.335 35.2667 221.035 35.3C214.118 35.75 208.568 41.7167 208.602 48.65C208.635 58.3833 217.985 65.8 221.052 67.95C221.335 68.15 221.668 68.25 222.002 68.25C222.335 68.25 222.668 68.15 222.968 67.9333C226.002 65.7667 235.268 58.3333 235.268 48.5833C235.268 41.2167 229.302 35.25 221.935 35.25V35.2667Z" fill="black" fill-opacity="0.2"/>
<path d="M221.934 53.6C224.695 53.6 226.934 51.3614 226.934 48.6C226.934 45.8386 224.695 43.6 221.934 43.6C219.172 43.6 216.934 45.8386 216.934 48.6C216.934 51.3614 219.172 53.6 221.934 53.6Z" fill="#362D2D"/>
<path d="M221.934 53.6C224.695 53.6 226.934 51.3614 226.934 48.6C226.934 45.8386 224.695 43.6 221.934 43.6C219.172 43.6 216.934 45.8386 216.934 48.6C216.934 51.3614 219.172 53.6 221.934 53.6Z" fill="black" fill-opacity="0.2"/>
<path d="M320.918 35.9199C327.538 35.9199 332.918 41.2999 332.918 47.9199C332.918 56.7399 324.878 64.0199 320.998 67.0199C317.078 64.0199 308.958 56.7599 308.918 47.9599C308.918 41.7399 313.918 36.3399 320.098 35.9399C320.378 35.9399 320.638 35.9199 320.918 35.9199ZM320.918 31.9199C320.558 31.9199 320.198 31.9199 319.838 31.9599C311.538 32.4999 304.878 39.6599 304.918 47.9799C304.958 59.6599 316.178 68.5599 319.858 71.1399C320.198 71.3799 320.598 71.4999 320.998 71.4999C321.398 71.4999 321.798 71.3799 322.158 71.1199C325.798 68.5199 336.918 59.5999 336.918 47.8999C336.918 39.0599 329.758 31.8999 320.918 31.8999V31.9199Z" fill="#362D2D"/>
<path d="M320.918 35.9199C327.538 35.9199 332.918 41.2999 332.918 47.9199C332.918 56.7399 324.878 64.0199 320.998 67.0199C317.078 64.0199 308.958 56.7599 308.918 47.9599C308.918 41.7399 313.918 36.3399 320.098 35.9399C320.378 35.9399 320.638 35.9199 320.918 35.9199ZM320.918 31.9199C320.558 31.9199 320.198 31.9199 319.838 31.9599C311.538 32.4999 304.878 39.6599 304.918 47.9799C304.958 59.6599 316.178 68.5599 319.858 71.1399C320.198 71.3799 320.598 71.4999 320.998 71.4999C321.398 71.4999 321.798 71.3799 322.158 71.1199C325.798 68.5199 336.918 59.5999 336.918 47.8999C336.918 39.0599 329.758 31.8999 320.918 31.8999V31.9199Z" fill="black" fill-opacity="0.2"/>
<path d="M320.922 53.9199C324.236 53.9199 326.922 51.2336 326.922 47.9199C326.922 44.6062 324.236 41.9199 320.922 41.9199C317.608 41.9199 314.922 44.6062 314.922 47.9199C314.922 51.2336 317.608 53.9199 320.922 53.9199Z" fill="#362D2D"/>
<path d="M320.922 53.9199C324.236 53.9199 326.922 51.2336 326.922 47.9199C326.922 44.6062 324.236 41.9199 320.922 41.9199C317.608 41.9199 314.922 44.6062 314.922 47.9199C314.922 51.2336 317.608 53.9199 320.922 53.9199Z" fill="black" fill-opacity="0.2"/>
<path d="M426.909 33.24C434.632 33.24 440.909 39.5167 440.909 47.24C440.909 57.53 431.529 66.0234 427.002 69.5234C422.429 66.0234 412.956 57.5534 412.909 47.2867C412.909 40.03 418.742 33.73 425.952 33.2634C426.279 33.2634 426.582 33.24 426.909 33.24ZM426.909 28.5734C426.489 28.5734 426.069 28.5734 425.649 28.62C415.966 29.25 408.196 37.6034 408.242 47.31C408.289 60.9367 421.379 71.32 425.672 74.33C426.069 74.61 426.536 74.75 427.002 74.75C427.469 74.75 427.936 74.61 428.356 74.3067C432.602 71.2734 445.576 60.8667 445.576 47.2167C445.576 36.9034 437.222 28.55 426.909 28.55V28.5734Z" fill="#362D2D"/>
<path d="M426.909 33.24C434.632 33.24 440.909 39.5167 440.909 47.24C440.909 57.53 431.529 66.0234 427.002 69.5234C422.429 66.0234 412.956 57.5534 412.909 47.2867C412.909 40.03 418.742 33.73 425.952 33.2634C426.279 33.2634 426.582 33.24 426.909 33.24ZM426.909 28.5734C426.489 28.5734 426.069 28.5734 425.649 28.62C415.966 29.25 408.196 37.6034 408.242 47.31C408.289 60.9367 421.379 71.32 425.672 74.33C426.069 74.61 426.536 74.75 427.002 74.75C427.469 74.75 427.936 74.61 428.356 74.3067C432.602 71.2734 445.576 60.8667 445.576 47.2167C445.576 36.9034 437.222 28.55 426.909 28.55V28.5734Z" fill="black" fill-opacity="0.2"/>
<path d="M426.906 54.24C430.772 54.24 433.906 51.106 433.906 47.24C433.906 43.374 430.772 40.24 426.906 40.24C423.04 40.24 419.906 43.374 419.906 47.24C419.906 51.106 423.04 54.24 426.906 54.24Z" fill="#362D2D"/>
<path d="M426.906 54.24C430.772 54.24 433.906 51.106 433.906 47.24C433.906 43.374 430.772 40.24 426.906 40.24C423.04 40.24 419.906 43.374 419.906 47.24C419.906 51.106 423.04 54.24 426.906 54.24Z" fill="black" fill-opacity="0.2"/>
<path d="M540.892 30.56C549.719 30.56 556.892 37.7333 556.892 46.5599C556.892 58.32 546.172 68.0266 540.999 72.0266C535.772 68.0266 524.945 58.3466 524.892 46.6133C524.892 38.32 531.559 31.12 539.799 30.5866C540.172 30.5866 540.519 30.56 540.892 30.56ZM540.892 25.2266C540.412 25.2266 539.932 25.2266 539.452 25.28C528.385 26 519.505 35.5466 519.559 46.6399C519.612 62.2133 534.572 74.0799 539.479 77.5199C539.932 77.8399 540.465 77.9999 540.999 77.9999C541.532 77.9999 542.066 77.8399 542.545 77.4933C547.399 74.0266 562.225 62.1333 562.225 46.5333C562.225 34.7466 552.679 25.2 540.892 25.2V25.2266Z" fill="#362D2D"/>
<path d="M540.892 30.56C549.719 30.56 556.892 37.7333 556.892 46.5599C556.892 58.32 546.172 68.0266 540.999 72.0266C535.772 68.0266 524.945 58.3466 524.892 46.6133C524.892 38.32 531.559 31.12 539.799 30.5866C540.172 30.5866 540.519 30.56 540.892 30.56ZM540.892 25.2266C540.412 25.2266 539.932 25.2266 539.452 25.28C528.385 26 519.505 35.5466 519.559 46.6399C519.612 62.2133 534.572 74.0799 539.479 77.5199C539.932 77.8399 540.465 77.9999 540.999 77.9999C541.532 77.9999 542.066 77.8399 542.545 77.4933C547.399 74.0266 562.225 62.1333 562.225 46.5333C562.225 34.7466 552.679 25.2 540.892 25.2V25.2266Z" fill="black" fill-opacity="0.2"/>
<path d="M540.895 54.5601C545.313 54.5601 548.895 50.9783 548.895 46.5601C548.895 42.1418 545.313 38.5601 540.895 38.5601C536.476 38.5601 532.895 42.1418 532.895 46.5601C532.895 50.9783 536.476 54.5601 540.895 54.5601Z" fill="#362D2D"/>
<path d="M540.895 54.5601C545.313 54.5601 548.895 50.9783 548.895 46.5601C548.895 42.1418 545.313 38.5601 540.895 38.5601C536.476 38.5601 532.895 42.1418 532.895 46.5601C532.895 50.9783 536.476 54.5601 540.895 54.5601Z" fill="black" fill-opacity="0.2"/>
<path d="M31.421 140.97C27.271 141.24 23.941 144.82 23.961 148.98C23.981 154.82 29.591 159.27 31.431 160.56C31.781 160.8 32.231 160.8 32.581 160.56C34.401 159.26 39.961 154.8 39.961 148.95C39.961 144.35 36.091 140.66 31.421 140.97ZM31.961 151.95C30.301 151.95 28.961 150.61 28.961 148.95C28.961 147.29 30.301 145.95 31.961 145.95C33.621 145.95 34.961 147.29 34.961 148.95C34.961 150.61 33.621 151.95 31.961 151.95Z" fill="#362D2D"/>
<path d="M31.421 140.97C27.271 141.24 23.941 144.82 23.961 148.98C23.981 154.82 29.591 159.27 31.431 160.56C31.781 160.8 32.231 160.8 32.581 160.56C34.401 159.26 39.961 154.8 39.961 148.95C39.961 144.35 36.091 140.66 31.421 140.97ZM31.961 151.95C30.301 151.95 28.961 150.61 28.961 148.95C28.961 147.29 30.301 145.95 31.961 145.95C33.621 145.95 34.961 147.29 34.961 148.95C34.961 150.61 33.621 151.95 31.961 151.95Z" fill="black" fill-opacity="0.2"/>
<path d="M126.228 137.627C120.695 137.987 116.255 142.76 116.281 148.307C116.308 156.093 123.788 162.027 126.241 163.747C126.708 164.067 127.308 164.067 127.775 163.747C130.201 162.013 137.615 156.067 137.615 148.267C137.615 142.133 132.455 137.213 126.228 137.627ZM126.948 152.267C124.735 152.267 122.948 150.48 122.948 148.267C122.948 146.053 124.735 144.267 126.948 144.267C129.161 144.267 130.948 146.053 130.948 148.267C130.948 150.48 129.161 152.267 126.948 152.267Z" fill="#362D2D"/>
<path d="M126.228 137.627C120.695 137.987 116.255 142.76 116.281 148.307C116.308 156.093 123.788 162.027 126.241 163.747C126.708 164.067 127.308 164.067 127.775 163.747C130.201 162.013 137.615 156.067 137.615 148.267C137.615 142.133 132.455 137.213 126.228 137.627ZM126.948 152.267C124.735 152.267 122.948 150.48 122.948 148.267C122.948 146.053 124.735 144.267 126.948 144.267C129.161 144.267 130.948 146.053 130.948 148.267C130.948 150.48 129.161 152.267 126.948 152.267Z" fill="black" fill-opacity="0.2"/>
<path d="M221.035 134.283C214.118 134.733 208.568 140.7 208.602 147.633C208.635 157.367 217.985 164.783 221.052 166.933C221.635 167.333 222.385 167.333 222.968 166.933C226.002 164.767 235.268 157.333 235.268 147.583C235.268 139.917 228.818 133.767 221.035 134.283ZM221.935 152.583C219.168 152.583 216.935 150.35 216.935 147.583C216.935 144.817 219.168 142.583 221.935 142.583C224.702 142.583 226.935 144.817 226.935 147.583C226.935 150.35 224.702 152.583 221.935 152.583Z" fill="#362D2D"/>
<path d="M221.035 134.283C214.118 134.733 208.568 140.7 208.602 147.633C208.635 157.367 217.985 164.783 221.052 166.933C221.635 167.333 222.385 167.333 222.968 166.933C226.002 164.767 235.268 157.333 235.268 147.583C235.268 139.917 228.818 133.767 221.035 134.283ZM221.935 152.583C219.168 152.583 216.935 150.35 216.935 147.583C216.935 144.817 219.168 142.583 221.935 142.583C224.702 142.583 226.935 144.817 226.935 147.583C226.935 150.35 224.702 152.583 221.935 152.583Z" fill="black" fill-opacity="0.2"/>
<path d="M319.838 130.94C311.538 131.48 304.878 138.64 304.918 146.96C304.958 158.64 316.178 167.54 319.858 170.12C320.558 170.6 321.458 170.6 322.158 170.12C325.798 167.52 336.918 158.6 336.918 146.9C336.918 137.7 329.178 130.32 319.838 130.94ZM320.918 152.9C317.598 152.9 314.918 150.22 314.918 146.9C314.918 143.58 317.598 140.9 320.918 140.9C324.238 140.9 326.918 143.58 326.918 146.9C326.918 150.22 324.238 152.9 320.918 152.9Z" fill="#362D2D"/>
<path d="M319.838 130.94C311.538 131.48 304.878 138.64 304.918 146.96C304.958 158.64 316.178 167.54 319.858 170.12C320.558 170.6 321.458 170.6 322.158 170.12C325.798 167.52 336.918 158.6 336.918 146.9C336.918 137.7 329.178 130.32 319.838 130.94ZM320.918 152.9C317.598 152.9 314.918 150.22 314.918 146.9C314.918 143.58 317.598 140.9 320.918 140.9C324.238 140.9 326.918 143.58 326.918 146.9C326.918 150.22 324.238 152.9 320.918 152.9Z" fill="black" fill-opacity="0.2"/>
<path d="M425.649 127.597C415.966 128.227 408.196 136.58 408.242 146.287C408.289 159.913 421.379 170.297 425.672 173.307C426.489 173.867 427.539 173.867 428.356 173.307C432.602 170.273 445.576 159.867 445.576 146.217C445.576 135.483 436.546 126.873 425.649 127.597ZM426.909 153.217C423.036 153.217 419.909 150.09 419.909 146.217C419.909 142.343 423.036 139.217 426.909 139.217C430.782 139.217 433.909 142.343 433.909 146.217C433.909 150.09 430.782 153.217 426.909 153.217Z" fill="#362D2D"/>
<path d="M425.649 127.597C415.966 128.227 408.196 136.58 408.242 146.287C408.289 159.913 421.379 170.297 425.672 173.307C426.489 173.867 427.539 173.867 428.356 173.307C432.602 170.273 445.576 159.867 445.576 146.217C445.576 135.483 436.546 126.873 425.649 127.597ZM426.909 153.217C423.036 153.217 419.909 150.09 419.909 146.217C419.909 142.343 423.036 139.217 426.909 139.217C430.782 139.217 433.909 142.343 433.909 146.217C433.909 150.09 430.782 153.217 426.909 153.217Z" fill="black" fill-opacity="0.2"/>
<path d="M539.452 124.253C528.385 124.973 519.505 134.52 519.559 145.613C519.612 161.187 534.572 173.053 539.479 176.493C540.412 177.133 541.612 177.133 542.545 176.493C547.399 173.027 562.225 161.133 562.225 145.533C562.225 133.267 551.906 123.427 539.452 124.253ZM540.892 153.533C536.465 153.533 532.892 149.96 532.892 145.533C532.892 141.107 536.465 137.533 540.892 137.533C545.319 137.533 548.892 141.107 548.892 145.533C548.892 149.96 545.319 153.533 540.892 153.533Z" fill="#362D2D"/>
<path d="M539.452 124.253C528.385 124.973 519.505 134.52 519.559 145.613C519.612 161.187 534.572 173.053 539.479 176.493C540.412 177.133 541.612 177.133 542.545 176.493C547.399 173.027 562.225 161.133 562.225 145.533C562.225 133.267 551.906 123.427 539.452 124.253ZM540.892 153.533C536.465 153.533 532.892 149.96 532.892 145.533C532.892 141.107 536.465 137.533 540.892 137.533C545.319 137.533 548.892 141.107 548.892 145.533C548.892 149.96 545.319 153.533 540.892 153.533Z" fill="black" fill-opacity="0.2"/>
</svg>
