<svg width="64" height="64" viewBox="0 0 64 64" fill="none" xmlns="http://www.w3.org/2000/svg">
<path d="M31.8922 10.56C40.7188 10.56 47.8922 17.7333 47.8922 26.5599C47.8922 38.32 37.1722 48.0266 31.9988 52.0266C26.7722 48.0266 15.9455 38.3466 15.8922 26.6133C15.8922 18.32 22.5588 11.12 30.7988 10.5866C31.1722 10.5866 31.5188 10.56 31.8922 10.56ZM31.8922 5.22662C31.4122 5.22662 30.9322 5.22662 30.4522 5.27995C19.3855 5.99995 10.5055 15.5466 10.5588 26.6399C10.6122 42.2133 25.5722 54.0799 30.4788 57.5199C30.9322 57.8399 31.4655 57.9999 31.9988 57.9999C32.5322 57.9999 33.0655 57.8399 33.5455 57.4933C38.3988 54.0266 53.2255 42.1333 53.2255 26.5333C53.2255 14.7466 43.6788 5.19995 31.8922 5.19995V5.22662Z" fill="#362D2D"/>
<path d="M31.8922 10.56C40.7188 10.56 47.8922 17.7333 47.8922 26.5599C47.8922 38.32 37.1722 48.0266 31.9988 52.0266C26.7722 48.0266 15.9455 38.3466 15.8922 26.6133C15.8922 18.32 22.5588 11.12 30.7988 10.5866C31.1722 10.5866 31.5188 10.56 31.8922 10.56ZM31.8922 5.22662C31.4122 5.22662 30.9322 5.22662 30.4522 5.27995C19.3855 5.99995 10.5055 15.5466 10.5588 26.6399C10.6122 42.2133 25.5722 54.0799 30.4788 57.5199C30.9322 57.8399 31.4655 57.9999 31.9988 57.9999C32.5322 57.9999 33.0655 57.8399 33.5455 57.4933C38.3988 54.0266 53.2255 42.1333 53.2255 26.5333C53.2255 14.7466 43.6788 5.19995 31.8922 5.19995V5.22662Z" fill="black" fill-opacity="0.2"/>
<path d="M31.8945 34.5601C36.3128 34.5601 39.8945 30.9783 39.8945 26.5601C39.8945 22.1418 36.3128 18.5601 31.8945 18.5601C27.4763 18.5601 23.8945 22.1418 23.8945 26.5601C23.8945 30.9783 27.4763 34.5601 31.8945 34.5601Z" fill="#362D2D"/>
<path d="M31.8945 34.5601C36.3128 34.5601 39.8945 30.9783 39.8945 26.5601C39.8945 22.1418 36.3128 18.5601 31.8945 18.5601C27.4763 18.5601 23.8945 22.1418 23.8945 26.5601C23.8945 30.9783 27.4763 34.5601 31.8945 34.5601Z" fill="black" fill-opacity="0.2"/>
</svg>
