<?xml version="1.0" encoding="UTF-8"?>
<svg id="icons-working-converted" xmlns="http://www.w3.org/2000/svg" viewBox="0 0 24 24">
  <defs>
    <style>
      .cls-1 {
        stroke-width: 0px;
      }
    </style>
  </defs>
  <circle class="cls-1" cx="12" cy="11" r="2"/>
  <circle class="cls-1" cx="12" cy="17" r="1"/>
  <path class="cls-1" d="m20.71,11.29L12.71,3.29c-.39-.39-1.02-.39-1.41,0L3.29,11.29c-.39.39-.39,1.02,0,1.41s1.02.39,1.41,0l.51-.51.79,7.9c.05.51.48.9,1,.9h10c.51,0,.94-.39,1-.9l.79-7.9.51.51c.2.2.45.29.71.29s.51-.1.71-.29c.39-.39.39-1.02,0-1.41Zm-4.61,7.71H7.91l-.86-8.63,4.96-4.96,4.96,4.96-.86,8.63Z"/>
</svg>