<?xml version="1.0" encoding="UTF-8"?>
<svg id="icons-ready-for-export" xmlns="http://www.w3.org/2000/svg" viewBox="0 0 24 24">
  <defs>
    <style>
      .cls-1 {
        fill: #362d2d;
      }

      .cls-2 {
        fill: #43b8de;
      }
    </style>
  </defs>
  <path class="cls-2" d="m4,3v16h5l3,3,3-3h5V3H4Zm8,11c-1.65,0-3-1.34-3-3s1.35-3,3-3,3,1.34,3,3-1.34,3-3,3Z"/>
  <path class="cls-1" d="m12,23c-.26,0-.51-.1-.71-.29l-2.71-2.71h-4.59c-.55,0-1-.45-1-1V3c0-.55.45-1,1-1h16c.55,0,1,.45,1,1v16c0,.55-.45,1-1,1h-4.59l-2.71,2.71c-.2.2-.45.29-.71.29Zm-7-5h4c.27,0,.52.11.71.29l2.29,2.29,2.29-2.29c.19-.19.44-.29.71-.29h4V4H5v14Zm7-3c-2.21,0-4-1.79-4-4s1.79-4,4-4,4,1.79,4,4-1.79,4-4,4Zm0-6c-1.1,0-2,.9-2,2s.9,2,2,2,2-.9,2-2-.9-2-2-2Z"/>
</svg>